<svg width="44" height="44" viewBox="0 0 44 44" fill="none" xmlns="http://www.w3.org/2000/svg">
<rect x="0.5" y="0.5" width="43" height="43" rx="21.5" fill="white"/>
<rect x="0.5" y="0.5" width="43" height="43" rx="21.5" stroke="#E2E8F0"/>
<path d="M29.35 19.55C28.67 15.2375 25.64 12 22 12C19.11 12 16.6 14.05 15.35 17.05C12.34 17.45 10 20.6375 10 24.5C10 28.6375 12.69 32 16 32H29C31.76 32 34 29.2 34 25.75C34 22.45 31.95 19.775 29.35 19.55Z" stroke="#00C853" stroke-width="1.8" stroke-linecap="round" stroke-linejoin="round"/>
<path d="M22 22L19 17L16 22M19 17V27" stroke="#00C853" stroke-width="1.6" stroke-linecap="round" stroke-linejoin="round"/>
<path d="M29 24L26 29L23 24M26 29V19" stroke="#00C853" stroke-width="1.6" stroke-linecap="round" stroke-linejoin="round"/>
</svg>
